<?xml version="1.0" encoding="UTF-8"?>
<svg xmlns="http://www.w3.org/2000/svg" viewBox="0 0 116.67 112">
  <defs>
    <style>
      .g {
        stroke: url(#c);
        stroke-dasharray: 22.91 22.91;
        stroke-linecap: round;
        stroke-miterlimit: 15;
      }

      .g, .h {
        fill: none;
        stroke-width: 20px;
      }

      .i {
        fill: url(#b);
      }

      .h {
        stroke: url(#e);
      }

      .h, .j {
        stroke-miterlimit: 10;
      }

      .j {
        fill: #836bae;
        stroke: #5e5c9a;
      }
    </style>
    <linearGradient id="b" x1="15.92" y1="56" x2="100.75" y2="56" gradientUnits="userSpaceOnUse">
      <stop offset="0" stop-color="#170038"/>
      <stop offset="1" stop-color="#002a16"/>
    </linearGradient>
    <linearGradient id="c" x1="5.92" y1="56" x2="110.75" y2="56" gradientUnits="userSpaceOnUse">
      <stop offset="0" stop-color="#3b286a"/>
      <stop offset="1" stop-color="#4f9a70"/>
    </linearGradient>
    <linearGradient id="e" x1="27.71" y1="109.05" x2="88.96" y2="2.95" gradientTransform="translate(0 0)" gradientUnits="userSpaceOnUse">
      <stop offset="0" stop-color="#452979"/>
      <stop offset="1" stop-color="#68c28c"/>
    </linearGradient>
  </defs>
  <g id="a">
    <g>
      <path class="i" d="M76.75,13h-36.83c-1.89,0-3.62,1.07-4.47,2.76l-19,38c-.7,1.41-.7,3.06,0,4.47l19,38c.85,1.69,2.58,2.76,4.47,2.76h36.83c1.89,0,3.62-1.07,4.47-2.76l19-38c.7-1.41.7-3.06,0-4.47l-19-38c-.85-1.69-2.58-2.76-4.47-2.76Z"/>
      <path class="g" d="M76.75,13h-36.83c-1.89,0-3.62,1.07-4.47,2.76l-19,38c-.7,1.41-.7,3.06,0,4.47l19,38c.85,1.69,2.58,2.76,4.47,2.76h36.83c1.89,0,3.62-1.07,4.47-2.76l19-38c.7-1.41.7-3.06,0-4.47l-19-38c-.85-1.69-2.58-2.76-4.47-2.76Z"/>
    </g>
  </g>
  <g id="d">
    <path class="h" d="M79.83,10h-43c-1.85,0-3.54,1.02-4.41,2.65L10.59,53.65c-.78,1.47-.78,3.23,0,4.7l21.84,41c.87,1.63,2.57,2.65,4.41,2.65h43c1.85,0,3.54-1.02,4.41-2.65l21.84-41c.78-1.47.78-3.23,0-4.7l-21.84-41c-.87-1.63-2.57-2.65-4.41-2.65Z"/>
  </g>
  <g id="f">
    <g>
      <path class="j" d="M55.91,77.44c0,.47-.02.86-.07,1.16-.05.3-.11.54-.2.72-.09.18-.2.32-.33.41-.13.09-.26.15-.41.19-.42.11-.82.18-1.2.22-.38.04-.81.05-1.28.05-1.43,0-2.62-.23-3.57-.68-.94-.45-1.7-1.11-2.26-1.97-.56-.86-.96-1.95-1.18-3.25-.23-1.31-.34-2.99-.34-5.06v-4.68c0-1.14-.07-2.05-.22-2.72-.15-.67-.37-1.27-.68-1.78-.31-.52-.7-.95-1.18-1.29-.48-.34-1.07-.57-1.76-.68-.18-.04-.34-.1-.46-.2-.13-.1-.24-.24-.33-.44-.09-.19-.16-.45-.2-.78-.05-.33-.07-.73-.07-1.2s.02-.9.05-1.24c.04-.34.1-.6.18-.8.08-.2.18-.34.3-.42.12-.08.27-.14.45-.18,1.27-.18,2.24-.8,2.91-1.85.67-1.05,1.01-2.6,1.01-4.65v-3.51c0-2.07.11-3.75.34-5.05.23-1.3.63-2.39,1.2-3.27.57-.88,1.33-1.54,2.27-1.99.94-.44,2.12-.67,3.54-.67.47,0,.9.02,1.28.07.38.05.77.11,1.17.2.16.02.31.07.44.16.13.09.24.23.33.41.09.18.16.43.2.75.04.32.07.7.07,1.16s-.03.86-.08,1.17c-.05.31-.13.56-.22.76-.09.2-.21.34-.35.42-.15.08-.29.12-.44.12l-1.01.03c-.45.02-.83.1-1.13.26-.3.15-.54.43-.73.82-.19.39-.33.92-.41,1.58-.08.66-.12,1.69-.12,3.09v3.38c0,1.4-.1,2.57-.3,3.51-.2.94-.52,1.8-.97,2.56-.44.76-1.02,1.42-1.73,1.97-.71.55-1.58.95-2.61,1.18,1.03.24,1.91.63,2.61,1.17s1.28,1.2,1.73,1.97c.44.77.77,1.63.97,2.57.2.94.3,2.11.3,3.48v4.57c0,1.38.04,2.4.12,3.06.08.66.21,1.19.38,1.58.17.39.39.67.65.83.26.16.59.25.99.27h1.01c.25.02.47.07.65.15.18.08.32.22.42.41.1.19.17.44.2.75.04.31.05.71.05,1.2Z"/>
      <path class="j" d="M76.49,55.33c0,.51-.02.93-.07,1.25-.05.33-.1.59-.18.79-.07.2-.17.34-.3.44-.13.09-.27.15-.44.16-.69.09-1.28.36-1.77.8-.49.44-.89,1-1.21,1.66-.32.66-.55,1.4-.71,2.22-.15.82-.23,1.83-.23,3.05v3.51c0,2.07-.11,3.75-.34,5.05-.23,1.3-.63,2.38-1.2,3.25s-1.33,1.53-2.27,1.99c-.94.45-2.12.68-3.54.68-.45,0-.87-.02-1.25-.07-.38-.05-.8-.11-1.25-.2-.15-.04-.28-.1-.39-.19-.12-.09-.22-.23-.31-.41-.09-.18-.16-.42-.22-.72s-.08-.69-.08-1.16.03-.86.08-1.17c.05-.31.13-.56.23-.76.1-.2.22-.34.35-.42s.28-.13.42-.15h1.03c.45-.02.83-.1,1.13-.26.3-.15.54-.43.73-.82.19-.39.33-.92.41-1.59.08-.67.12-1.7.12-3.08v-3.4c0-1.38.1-2.6.3-3.67.2-1.07.52-2.06.95-2.98.44-.92,1.01-1.71,1.73-2.4.72-.68,1.59-1.14,2.63-1.37-1.03-.24-1.91-.56-2.63-.98-.72-.42-1.29-.93-1.73-1.55-.44-.62-.75-1.33-.95-2.15-.2-.82-.3-1.92-.3-3.32v-4.55c0-1.38-.04-2.4-.12-3.06-.08-.66-.2-1.19-.37-1.59-.16-.4-.38-.68-.65-.83-.27-.15-.61-.24-1.01-.26l-.98-.03c-.27,0-.5-.04-.68-.12-.18-.08-.33-.21-.44-.39-.11-.18-.18-.43-.22-.75-.04-.32-.05-.72-.05-1.21,0-.45.02-.84.07-1.16.04-.32.12-.57.22-.75.1-.18.21-.32.34-.41.13-.09.27-.14.44-.16.42-.11.82-.18,1.2-.22.38-.04.8-.05,1.25-.05,1.43,0,2.62.22,3.57.67.94.44,1.7,1.1,2.26,1.97.56.87.96,1.96,1.18,3.25.23,1.3.34,2.99.34,5.08v4.68c0,1.13.07,1.96.22,2.52.14.55.37,1.01.67,1.37.3.36.69.65,1.18.87s1.08.39,1.77.52c.16.02.31.08.45.18.14.1.24.25.33.45.08.2.15.46.2.78.05.32.08.71.08,1.18Z"/>
    </g>
  </g>
</svg>