<?xml version="1.0" encoding="UTF-8"?>
<svg xmlns="http://www.w3.org/2000/svg" xmlns:xlink="http://www.w3.org/1999/xlink" viewBox="0 0 123.17 113.03">
  <defs>
    <style>
      .i {
        fill: url(#h);
      }

      .j {
        fill: url(#g);
      }

      .k {
        fill: url(#b);
      }

      .l {
        stroke: url(#e);
        stroke-miterlimit: 10;
      }

      .l, .m {
        fill: none;
        stroke-width: 20px;
      }

      .m {
        stroke: url(#c);
        stroke-dasharray: 23.77 23.77;
        stroke-linecap: round;
        stroke-miterlimit: 15;
      }
    </style>
    <linearGradient id="b" x1="16.32" y1="56.52" x2="106.85" y2="56.52" gradientUnits="userSpaceOnUse">
      <stop offset="0" stop-color="#170038"/>
      <stop offset="1" stop-color="#002a16"/>
    </linearGradient>
    <linearGradient id="c" x1="6.32" y1="56.52" x2="116.85" y2="56.52" gradientUnits="userSpaceOnUse">
      <stop offset="0" stop-color="#3b286a"/>
      <stop offset="1" stop-color="#4f9a70"/>
    </linearGradient>
    <linearGradient id="e" x1="30.3" y1="110.7" x2="92.87" y2="2.33" gradientTransform="translate(0 0)" gradientUnits="userSpaceOnUse">
      <stop offset="0" stop-color="#452979"/>
      <stop offset="1" stop-color="#68c28c"/>
    </linearGradient>
    <linearGradient id="g" x1="39.68" y1="56.52" x2="58.66" y2="56.52" gradientUnits="userSpaceOnUse">
      <stop offset="0" stop-color="#836caf"/>
      <stop offset="1" stop-color="#445ca9"/>
    </linearGradient>
    <linearGradient id="h" x1="64.48" x2="83.49" xlink:href="#g"/>
  </defs>
  <g id="a">
    <g>
      <path class="k" d="M81.53,13.03h-39.89c-1.85,0-3.55,1.02-4.42,2.66l-20.32,38.49c-.77,1.46-.77,3.21,0,4.66l20.32,38.49c.86,1.64,2.57,2.66,4.42,2.66h39.89c1.85,0,3.55-1.02,4.42-2.66l20.32-38.49c.77-1.46.77-3.21,0-4.66l-20.32-38.49c-.86-1.64-2.57-2.66-4.42-2.66Z"/>
      <path class="m" d="M81.53,13.03h-39.89c-1.85,0-3.55,1.02-4.42,2.66l-20.32,38.49c-.77,1.46-.77,3.21,0,4.66l20.32,38.49c.86,1.64,2.57,2.66,4.42,2.66h39.89c1.85,0,3.55-1.02,4.42-2.66l20.32-38.49c.77-1.46.77-3.21,0-4.66l-20.32-38.49c-.86-1.64-2.57-2.66-4.42-2.66Z"/>
    </g>
  </g>
  <g id="d">
    <path class="l" d="M84.82,10h-46.47c-1.81,0-3.47.97-4.36,2.55L10.64,54.07c-.86,1.52-.86,3.38,0,4.9l23.35,41.52c.89,1.57,2.55,2.55,4.36,2.55h46.47c1.81,0,3.47-.97,4.36-2.55l23.35-41.52c.86-1.52.86-3.38,0-4.9l-23.35-41.52c-.89-1.57-2.55-2.55-4.36-2.55Z"/>
  </g>
  <g id="f">
    <g>
      <path class="j" d="M58.66,80.65c0,.53-.03.97-.08,1.3-.05.34-.14.61-.25.81-.11.2-.24.36-.39.46-.15.1-.32.17-.49.21-.5.12-.99.2-1.44.25-.46.04-.97.06-1.54.06-1.73,0-3.16-.26-4.3-.77-1.14-.51-2.05-1.25-2.73-2.22-.68-.97-1.16-2.19-1.43-3.66-.27-1.47-.41-3.37-.41-5.7v-5.27c0-1.29-.09-2.31-.26-3.06-.18-.76-.45-1.42-.82-2.01-.37-.58-.85-1.07-1.43-1.46-.58-.39-1.29-.64-2.12-.77-.22-.04-.41-.12-.56-.23-.15-.11-.28-.28-.39-.49-.11-.21-.19-.51-.25-.87-.05-.37-.08-.82-.08-1.35s.02-1.02.07-1.39c.04-.38.11-.68.21-.9.1-.22.22-.38.36-.47.14-.09.32-.16.54-.2,1.53-.2,2.7-.9,3.51-2.08.81-1.18,1.22-2.93,1.22-5.24v-3.95c0-2.33.14-4.22.41-5.68.27-1.46.76-2.69,1.44-3.68.69-.99,1.6-1.74,2.74-2.24,1.14-.5,2.56-.75,4.27-.75.57,0,1.08.03,1.54.08.46.05.93.13,1.41.23.2.02.37.08.53.18.15.1.28.26.39.46.11.2.19.49.25.84.05.36.08.79.08,1.3s-.03.97-.1,1.32c-.07.35-.15.63-.26.86-.11.23-.25.38-.43.47-.18.09-.35.14-.53.14l-1.22.03c-.55.02-1,.12-1.36.29-.36.17-.66.48-.89.92-.23.44-.39,1.03-.49,1.78-.1.75-.15,1.91-.15,3.48v3.8c0,1.57-.12,2.89-.36,3.95-.24,1.06-.63,2.02-1.17,2.88-.54.86-1.23,1.6-2.09,2.22-.85.62-1.9,1.07-3.15,1.33,1.25.27,2.3.7,3.15,1.32s1.55,1.35,2.09,2.22c.54.87.92,1.83,1.17,2.9.24,1.06.36,2.37.36,3.92v5.15c0,1.55.05,2.7.15,3.45.1.75.25,1.34.46,1.78.21.44.47.75.79.93.32.18.72.29,1.2.31h1.22c.31.02.57.08.79.17.22.09.39.25.51.46.12.21.2.49.25.84.04.35.07.8.07,1.35Z"/>
      <path class="i" d="M83.49,55.77c0,.57-.03,1.04-.08,1.41-.05.37-.13.66-.21.89-.09.23-.21.39-.36.49-.15.1-.33.16-.53.18-.83.1-1.54.4-2.13.9-.59.5-1.08,1.12-1.46,1.87-.38.75-.67,1.58-.85,2.5-.19.92-.28,2.06-.28,3.43v3.95c0,2.33-.14,4.22-.41,5.68-.27,1.46-.76,2.68-1.44,3.66s-1.6,1.73-2.74,2.24c-1.14.51-2.56.77-4.27.77-.55,0-1.05-.03-1.51-.08-.46-.05-.96-.13-1.51-.23-.18-.04-.33-.11-.48-.21-.14-.1-.27-.26-.38-.46-.11-.2-.2-.47-.26-.81s-.1-.77-.1-1.3.03-.97.1-1.32c.07-.35.16-.63.28-.86.12-.23.26-.38.43-.47s.33-.15.51-.17h1.25c.55-.02,1-.12,1.36-.29.36-.17.66-.48.89-.92.23-.44.39-1.04.49-1.79.1-.76.15-1.91.15-3.46v-3.83c0-1.55.12-2.93.36-4.14.24-1.21.62-2.32,1.15-3.36.53-1.03,1.22-1.93,2.09-2.7.86-.77,1.92-1.28,3.17-1.55-1.25-.27-2.3-.63-3.17-1.1-.87-.47-1.56-1.05-2.09-1.75-.53-.69-.91-1.5-1.15-2.42-.24-.92-.36-2.16-.36-3.74v-5.12c0-1.55-.05-2.7-.15-3.45-.1-.75-.25-1.34-.44-1.79-.2-.45-.46-.76-.79-.93-.33-.17-.73-.27-1.22-.29l-1.18-.03c-.33,0-.6-.05-.82-.14-.22-.09-.39-.24-.53-.44-.13-.2-.22-.48-.26-.84-.04-.36-.07-.81-.07-1.36,0-.51.03-.94.08-1.3.05-.36.14-.64.26-.84.12-.2.26-.36.41-.46.15-.1.33-.16.53-.18.5-.12.99-.2,1.44-.25.46-.04.96-.06,1.51-.06,1.73,0,3.16.25,4.3.75,1.14.5,2.05,1.24,2.73,2.22.68.98,1.15,2.2,1.43,3.66.27,1.46.41,3.37.41,5.71v5.27c0,1.27.09,2.21.26,2.83.17.62.44,1.14.8,1.55.36.41.84.74,1.43.98s1.3.44,2.13.58c.2.02.38.09.54.2.16.11.3.28.39.51.1.23.18.52.25.87.07.36.1.8.1,1.33Z"/>
    </g>
  </g>
</svg>